<svg width="163" height="72" viewBox="0 0 163 72" fill="none" xmlns="http://www.w3.org/2000/svg">
<path d="M91.965 42.6829H99.2384C99.3091 42.6879 99.3802 42.6785 99.4471 42.6553C99.5141 42.6321 99.5757 42.5955 99.628 42.5477C99.6804 42.5 99.7225 42.4422 99.7517 42.3777C99.7809 42.3132 99.7967 42.2435 99.7981 42.1728V22.1242C99.7981 16.439 102.597 13.4433 107.428 13.4433C112.26 13.4433 115.007 16.439 115.007 22.1242V42.1753C115.008 42.2461 115.024 42.3158 115.053 42.3803C115.083 42.4447 115.125 42.5026 115.177 42.5503C115.229 42.598 115.291 42.6346 115.358 42.6578C115.425 42.6811 115.496 42.6904 115.567 42.6854H122.84C122.911 42.6904 122.982 42.6811 123.049 42.6578C123.116 42.6346 123.177 42.598 123.23 42.5503C123.282 42.5026 123.324 42.4447 123.353 42.3803C123.383 42.3158 123.398 42.2461 123.4 42.1753V22.1752C123.4 13.5951 118.619 6.08246 107.427 6.08246C96.2342 6.08246 91.4053 13.5951 91.4053 22.1752V42.1753C91.407 42.2458 91.423 42.3153 91.4524 42.3795C91.4818 42.4436 91.524 42.5012 91.5763 42.5486C91.6286 42.5961 91.69 42.6324 91.7568 42.6555C91.8236 42.6786 91.8944 42.6879 91.965 42.6829Z" fill="#00A868"/>
<path d="M41.913 43.1406C44.5581 43.1406 46.2871 42.8358 47.0499 42.531C47.1637 42.4857 47.2623 42.4092 47.3344 42.3104C47.4065 42.2116 47.4492 42.0944 47.4576 41.9725V35.9787C47.4576 35.6229 47.3042 35.4201 46.8468 35.4201C46.4902 35.4201 45.4731 35.6229 44.6591 35.6229C41.5054 35.6229 40.133 34.456 40.133 31.7141V14.8142H46.8468C46.9948 14.8129 47.1364 14.7536 47.241 14.6491C47.3457 14.5447 47.4051 14.4034 47.4064 14.2556V7.70709C47.4051 7.55936 47.3457 7.41805 47.241 7.31359C47.1364 7.20912 46.9948 7.14985 46.8468 7.14852H39.8787V1.46334C39.8787 0.853754 39.6231 0.599976 39.1657 0.599976H32.2985C31.7401 0.599976 31.4858 0.855029 31.4858 1.46334V32.5801C31.4858 40.145 35.7065 43.1406 41.913 43.1406Z" fill="#00A868"/>
<path d="M12.7183 43.5461C20.908 43.5461 26.758 38.5203 26.758 31.9717C26.758 24.6108 21.8741 22.4798 15.2114 21.0579L11.9044 20.3476C9.41257 19.789 8.03889 18.6209 8.03889 16.6416C8.03889 14.1038 10.5818 12.7329 14.092 12.7329C19.0258 12.7329 22.3826 14.9659 22.8912 14.9659C23.0326 14.9565 23.1687 14.9092 23.2853 14.8288C23.4018 14.7484 23.4944 14.638 23.5531 14.5094L24.8757 9.58553C25.1313 8.92494 25.0789 8.77318 24.6201 8.5194C21.6696 6.99672 18.5159 6.13336 14.0396 6.13336C5.749 6.13336 0 10.9054 0 17.2512C0 23.245 4.62961 26.5403 11.245 27.9635L14.6019 28.6739C17.2981 29.2324 18.8187 30.2986 18.8187 32.5826C18.8187 34.9176 16.9876 36.9478 12.6634 36.9478C6.55915 36.9478 2.38828 34.5121 1.72764 34.5121C1.32001 34.5121 1.16795 34.7148 1.01588 35.3742L0.150784 39.4869C-0.104784 40.349 0.150785 40.9076 0.710479 41.1614C2.79719 42.3282 8.4938 43.5461 12.7183 43.5461Z" fill="#00A868"/>
<path d="M68.2114 36.4901C62.87 36.4901 57.9886 32.4794 57.9886 24.9157C57.9886 17.3521 62.8713 13.4383 68.2114 13.4383C73.6026 13.4383 78.3842 17.347 78.3842 24.9157C78.3842 32.5304 73.6026 36.4901 68.2114 36.4901ZM68.2114 43.8C78.8928 43.8 86.6749 35.8308 86.6749 24.9157C86.6749 14.0006 78.8928 6.08246 68.2114 6.08246C57.5797 6.08246 49.7466 14.0019 49.7466 24.9157C49.7466 35.8295 57.5797 43.8 68.2114 43.8Z" fill="#00A868"/>
<path d="M163 24.5102C163 13.2878 156.539 6.08246 146.26 6.08246C136.596 6.08246 128.254 13.4944 128.254 24.764C128.254 36.7949 136.799 43.8 145.955 43.8C153.636 43.8 158.067 40.7789 160.808 37.0997C161.339 36.3868 161.447 36.0795 161.447 35.8805C161.447 35.6816 161.32 35.526 160.858 35.1154L157.653 32.3238C156.887 31.6645 156.631 31.4604 156.376 31.4604C156.12 31.4604 155.968 31.6135 155.765 31.8673C153.577 34.8119 150.526 36.4863 146.406 36.4863C141.209 36.4863 137.746 32.9627 136.867 27.2469H160.339C161.976 27.2508 163 26.7368 163 24.5102ZM145.959 13.1386C151.51 13.1386 154.447 16.8764 154.607 21.007H136.991C137.956 16.5716 140.972 13.1386 145.959 13.1386Z" fill="#00A868"/>
<path d="M101.065 63.834C100.937 65.1992 100.433 66.2656 99.5537 67.0332C98.6748 67.7949 97.5059 68.1758 96.0469 68.1758C95.0273 68.1758 94.1279 67.9355 93.3486 67.4551C92.5752 66.9688 91.9775 66.2803 91.5557 65.3896C91.1338 64.499 90.9141 63.4648 90.8965 62.2871V61.0918C90.8965 59.8848 91.1104 58.8213 91.5381 57.9014C91.9658 56.9814 92.5781 56.2725 93.375 55.7744C94.1777 55.2764 95.1035 55.0273 96.1523 55.0273C97.5645 55.0273 98.7012 55.4111 99.5625 56.1787C100.424 56.9463 100.925 58.0303 101.065 59.4307H98.8506C98.7451 58.5107 98.4756 57.8486 98.042 57.4443C97.6143 57.0342 96.9844 56.8291 96.1523 56.8291C95.1855 56.8291 94.4414 57.1836 93.9199 57.8926C93.4043 58.5957 93.1406 59.6299 93.1289 60.9951V62.1289C93.1289 63.5117 93.375 64.5664 93.8672 65.293C94.3652 66.0195 95.0918 66.3828 96.0469 66.3828C96.9199 66.3828 97.5762 66.1865 98.0156 65.7939C98.4551 65.4014 98.7334 64.748 98.8506 63.834H101.065ZM108.615 67.0684C107.988 67.8066 107.098 68.1758 105.943 68.1758C104.912 68.1758 104.13 67.874 103.597 67.2705C103.069 66.667 102.806 65.7939 102.806 64.6514V58.4902H104.941V64.625C104.941 65.832 105.442 66.4355 106.444 66.4355C107.481 66.4355 108.182 66.0635 108.545 65.3193V58.4902H110.681V68H108.668L108.615 67.0684ZM117.835 60.4414C117.554 60.3945 117.264 60.3711 116.965 60.3711C115.986 60.3711 115.327 60.7461 114.987 61.4961V68H112.852V58.4902H114.891L114.943 59.5537C115.459 58.7275 116.174 58.3145 117.088 58.3145C117.393 58.3145 117.645 58.3555 117.844 58.4375L117.835 60.4414ZM124.163 60.4414C123.882 60.3945 123.592 60.3711 123.293 60.3711C122.314 60.3711 121.655 60.7461 121.315 61.4961V68H119.18V58.4902H121.219L121.271 59.5537C121.787 58.7275 122.502 58.3145 123.416 58.3145C123.721 58.3145 123.973 58.3555 124.172 58.4375L124.163 60.4414ZM129.524 68.1758C128.171 68.1758 127.072 67.751 126.229 66.9014C125.391 66.0459 124.972 64.9092 124.972 63.4912V63.2275C124.972 62.2783 125.153 61.4316 125.517 60.6875C125.886 59.9375 126.401 59.3545 127.063 58.9385C127.726 58.5225 128.464 58.3145 129.278 58.3145C130.573 58.3145 131.572 58.7275 132.275 59.5537C132.984 60.3799 133.339 61.5488 133.339 63.0605V63.9219H127.125C127.189 64.707 127.45 65.3281 127.907 65.7852C128.37 66.2422 128.95 66.4707 129.647 66.4707C130.626 66.4707 131.423 66.0752 132.038 65.2842L133.189 66.3828C132.809 66.9512 132.299 67.3936 131.66 67.71C131.027 68.0205 130.315 68.1758 129.524 68.1758ZM129.27 60.0283C128.684 60.0283 128.209 60.2334 127.846 60.6436C127.488 61.0537 127.26 61.625 127.16 62.3574H131.229V62.1992C131.183 61.4844 130.992 60.9453 130.658 60.582C130.324 60.2129 129.861 60.0283 129.27 60.0283ZM136.986 58.4902L137.048 59.5889C137.751 58.7393 138.674 58.3145 139.816 58.3145C141.797 58.3145 142.805 59.4482 142.84 61.7158V68H140.704V61.8389C140.704 61.2354 140.572 60.79 140.309 60.5029C140.051 60.21 139.626 60.0635 139.034 60.0635C138.173 60.0635 137.531 60.4531 137.109 61.2324V68H134.974V58.4902H136.986ZM148.931 66.4707C149.464 66.4707 149.906 66.3154 150.258 66.0049C150.609 65.6943 150.797 65.3105 150.82 64.8535H152.833C152.81 65.4453 152.625 65.999 152.279 66.5146C151.934 67.0244 151.465 67.4287 150.873 67.7275C150.281 68.0264 149.643 68.1758 148.957 68.1758C147.627 68.1758 146.572 67.7451 145.793 66.8838C145.014 66.0225 144.624 64.833 144.624 63.3154V63.0957C144.624 61.6484 145.011 60.4912 145.784 59.624C146.558 58.751 147.612 58.3145 148.948 58.3145C150.079 58.3145 150.999 58.6455 151.708 59.3076C152.423 59.9639 152.798 60.8281 152.833 61.9004H150.82C150.797 61.3555 150.609 60.9072 150.258 60.5557C149.912 60.2041 149.47 60.0283 148.931 60.0283C148.239 60.0283 147.706 60.2803 147.331 60.7842C146.956 61.2822 146.766 62.041 146.76 63.0605V63.4033C146.76 64.4346 146.944 65.2051 147.313 65.7148C147.688 66.2188 148.228 66.4707 148.931 66.4707ZM157.772 64.9414L159.706 58.4902H161.982L158.203 69.4414C157.623 71.041 156.639 71.8408 155.25 71.8408C154.939 71.8408 154.597 71.7881 154.222 71.6826V70.0303L154.626 70.0566C155.165 70.0566 155.569 69.957 155.839 69.7578C156.114 69.5645 156.331 69.2363 156.489 68.7734L156.797 67.9561L153.457 58.4902H155.76L157.772 64.9414Z" fill="#00AB63"/>
<rect opacity="0.32" y="56" width="83" height="4" fill="#00AB63"/>
</svg>
